<svg width="850" height="456" viewBox="0 0 850 456" fill="none" xmlns="http://www.w3.org/2000/svg">
<rect y="4" width="850" height="8" fill="#765E55"/>
<rect x="80" y="4" width="686" height="451" fill="white"/>
<rect x="80" y="4" width="686" height="17" fill="#B39DDB"/>
<rect x="80" y="438" width="686" height="17" fill="#B39DDB"/>
<rect x="80" y="3" width="17" height="452" fill="#46419D"/>
<rect x="749" y="4" width="17" height="452" fill="#46419D"/>
<path d="M80 22.5L96.5 3.01443V41.9856L80 22.5Z" fill="#7577C3"/>
<path d="M80 62.5L96.5 43.0144V81.9856L80 62.5Z" fill="#7577C3"/>
<path d="M80 99.5L96.5 80.0144V118.986L80 99.5Z" fill="#7577C3"/>
<path d="M80 139.5L96.5 120.014V158.986L80 139.5Z" fill="#7577C3"/>
<path d="M80 179.5L96.5 160.014V198.986L80 179.5Z" fill="#7577C3"/>
<path d="M80 219.5L96.5 200.014V238.986L80 219.5Z" fill="#7577C3"/>
<path d="M80 256.5L96.5 237.014V275.986L80 256.5Z" fill="#7577C3"/>
<path d="M80 296.5L96.5 277.014V315.986L80 296.5Z" fill="#7577C3"/>
<path d="M80 336.5L96.5 317.014V355.986L80 336.5Z" fill="#7577C3"/>
<path d="M80 376.5L96.5 357.014V395.986L80 376.5Z" fill="#7577C3"/>
<path d="M80 413.5L96.5 394.014V432.986L80 413.5Z" fill="#7577C3"/>
<path d="M766 24.5L749.5 43.9856V5.01443L766 24.5Z" fill="#7577C3"/>
<path d="M766 64.5L749.5 83.9856V45.0144L766 64.5Z" fill="#7577C3"/>
<path d="M766 101.5L749.5 120.986V82.0144L766 101.5Z" fill="#7577C3"/>
<path d="M766 141.5L749.5 160.986V122.014L766 141.5Z" fill="#7577C3"/>
<path d="M766 181.5L749.5 200.986V162.014L766 181.5Z" fill="#7577C3"/>
<path d="M766 221.5L749.5 240.986V202.014L766 221.5Z" fill="#7577C3"/>
<path d="M766 258.5L749.5 277.986V239.014L766 258.5Z" fill="#7577C3"/>
<path d="M766 298.5L749.5 317.986V279.014L766 298.5Z" fill="#7577C3"/>
<path d="M766 338.5L749.5 357.986V319.014L766 338.5Z" fill="#7577C3"/>
<path d="M766 378.5L749.5 397.986V359.014L766 378.5Z" fill="#7577C3"/>
<path d="M766 415.5L749.5 434.986V396.014L766 415.5Z" fill="#7577C3"/>
</svg>
